<svg width="1440" height="1024" viewBox="0 0 1440 1024" fill="none" xmlns="http://www.w3.org/2000/svg">
  <g opacity="0.15">
    <rect width="1440" height="1024" fill="#0F0F13"/>
    <g opacity="0.5">
      <path d="M0 0L1440 0L1440 1024L0 1024L0 0Z" fill="url(#paint0_radial)"/>
      <path d="M0 0L1440 0L1440 1024L0 1024L0 0Z" fill="url(#paint1_radial)"/>
    </g>
    <g opacity="0.3">
      <path fill-rule="evenodd" clip-rule="evenodd" d="M1439.5 1024L1439.5 0L0 0L0 1024L1439.5 1024Z" fill="url(#paint2_linear)"/>
    </g>
    <g opacity="0.2" filter="url(#filter0_f)">
      <path d="M1095.5 139.5C1095.5 216.768 1033.27 279 956 279C878.732 279 816.5 216.768 816.5 139.5C816.5 62.2324 878.732 0 956 0C1033.27 0 1095.5 62.2324 1095.5 139.5Z" fill="#9333EA"/>
    </g>
    <g opacity="0.2" filter="url(#filter1_f)">
      <path d="M623.5 884.5C623.5 961.768 561.268 1024 484 1024C406.732 1024 344.5 961.768 344.5 884.5C344.5 807.232 406.732 745 484 745C561.268 745 623.5 807.232 623.5 884.5Z" fill="#4F46E5"/>
    </g>
    <g opacity="0.1">
      <path fill-rule="evenodd" clip-rule="evenodd" d="M1440 0H0V1024H1440V0ZM720 512C720 635.712 619.712 736 496 736C372.288 736 272 635.712 272 512C272 388.288 372.288 288 496 288C619.712 288 720 388.288 720 512ZM1168 512C1168 635.712 1067.71 736 944 736C820.288 736 720 635.712 720 512C720 388.288 820.288 288 944 288C1067.71 288 1168 388.288 1168 512Z" fill="url(#paint3_radial)"/>
    </g>
    <g opacity="0.2">
      <rect x="0.5" y="0.5" width="1439" height="1023" stroke="url(#paint4_linear)"/>
    </g>
  </g>
  <defs>
    <filter id="filter0_f" x="716.5" y="-100" width="479" height="479" filterUnits="userSpaceOnUse" color-interpolation-filters="sRGB">
      <feFlood flood-opacity="0" result="BackgroundImageFix"/>
      <feBlend mode="normal" in="SourceGraphic" in2="BackgroundImageFix" result="shape"/>
      <feGaussianBlur stdDeviation="50" result="effect1_foregroundBlur"/>
    </filter>
    <filter id="filter1_f" x="244.5" y="645" width="479" height="479" filterUnits="userSpaceOnUse" color-interpolation-filters="sRGB">
      <feFlood flood-opacity="0" result="BackgroundImageFix"/>
      <feBlend mode="normal" in="SourceGraphic" in2="BackgroundImageFix" result="shape"/>
      <feGaussianBlur stdDeviation="50" result="effect1_foregroundBlur"/>
    </filter>
    <radialGradient id="paint0_radial" cx="0" cy="0" r="1" gradientUnits="userSpaceOnUse" gradientTransform="translate(720 512) rotate(90) scale(512 720)">
      <stop stop-color="#9333EA" stop-opacity="0.2"/>
      <stop offset="1" stop-color="#9333EA" stop-opacity="0"/>
    </radialGradient>
    <radialGradient id="paint1_radial" cx="0" cy="0" r="1" gradientUnits="userSpaceOnUse" gradientTransform="translate(720 512) rotate(90) scale(512 720)">
      <stop stop-color="#4F46E5" stop-opacity="0.2"/>
      <stop offset="1" stop-color="#4F46E5" stop-opacity="0"/>
    </radialGradient>
    <linearGradient id="paint2_linear" x1="719.75" y1="0" x2="719.75" y2="1024" gradientUnits="userSpaceOnUse">
      <stop stop-color="#9333EA" stop-opacity="0.1"/>
      <stop offset="0.494792" stop-color="#4F46E5" stop-opacity="0.2"/>
      <stop offset="1" stop-color="#9333EA" stop-opacity="0.1"/>
    </linearGradient>
    <radialGradient id="paint3_radial" cx="0" cy="0" r="1" gradientUnits="userSpaceOnUse" gradientTransform="translate(720 512) rotate(90) scale(512 720)">
      <stop stop-color="white"/>
      <stop offset="1" stop-color="white" stop-opacity="0"/>
    </radialGradient>
    <linearGradient id="paint4_linear" x1="720" y1="0" x2="720" y2="1024" gradientUnits="userSpaceOnUse">
      <stop stop-color="#9333EA" stop-opacity="0.5"/>
      <stop offset="0.5" stop-color="#4F46E5" stop-opacity="0.5"/>
      <stop offset="1" stop-color="#9333EA" stop-opacity="0.5"/>
    </linearGradient>
  </defs>
</svg>

